<?xml version="1.0" encoding="utf-8"?>
<!-- Generator: Adobe Illustrator 21.1.0, SVG Export Plug-In . SVG Version: 6.00 Build 0)  -->
<svg version="1.1" id="Layer_1" xmlns="http://www.w3.org/2000/svg" xmlns:xlink="http://www.w3.org/1999/xlink" x="0px" y="0px"
	 viewBox="0 0 500 500" style="enable-background:new 0 0 500 500;" xml:space="preserve">
<style type="text/css">
	.st0{fill:#FFFFFF;}
</style>
<ellipse transform="matrix(7.214596e-02 -0.9974 0.9974 7.214596e-02 96.4516 395.2605)" class="st0" cx="260.7" cy="145.8" rx="88.8" ry="88.8"/>
<polygon class="st0" points="312.7,220.4 259.6,250.1 207.3,219.1 208,158.2 261.1,128.4 313.5,159.5 "/>
<polygon class="st0" points="167.5,393.3 97,439.8 99.7,340.1 143.5,249.7 174.1,124.8 215.3,219.2 "/>
<path class="st0" d="M260.5,363.4c-34,0-61.8-26-64.9-59.2c-0.2,2-0.3,4-0.3,6c0,36,29.2,65.1,65.1,65.1s65.1-29.2,65.1-65.1
	c0-2-0.1-4-0.3-6C322.3,337.4,294.5,363.4,260.5,363.4z"/>
<polygon class="st0" points="353.5,396 424,442.5 421.3,342.8 377.5,252.4 346.9,127.4 305.7,221.8 "/>
</svg>
