<?xml version="1.0" encoding="utf-8"?>
<!-- Generator: Adobe Illustrator 21.1.0, SVG Export Plug-In . SVG Version: 6.00 Build 0)  -->
<svg version="1.1" xmlns="http://www.w3.org/2000/svg" xmlns:xlink="http://www.w3.org/1999/xlink" x="0px" y="0px"
	 viewBox="0 0 500 500" style="enable-background:new 0 0 500 500;" xml:space="preserve">
<style type="text/css">
	.st0{display:none;}
	.st1{fill:#FFFFFF;}
</style>
<g id="Layer_2_1_" class="st0">
	
		<image style="display:inline;overflow:visible;" width="626" height="626" xlink:href="2EB00DD7.jpg"  transform="matrix(0.7061 0 0 0.7061 29 29)">
	</image>
</g>
<g id="Layer_4">
	<path class="st1" d="M471,280.4v-61.3c-5.3-9.3-10.7-9.3-10.7-9.3l-40-4.7c-6.7-26-18-42.7-18-42.7l25.3-32.7
		c4.7-5.3,0-12.3,0-12.3l-44-44.3c-8-5.3-14,1.3-14,1.3L337,97.1c-20.7-12-41.3-17.3-41.3-17.3l-6.7-44c-2.7-4.7-8-6-8-6h-62.7
		c-7.3,2.7-8.7,8.7-8.7,8.7l-6,42c-14.7,3.3-42,16.7-42,16.7l-32.7-24c-5.3-6-12.7,0-12.7,0l-41.3,40c-6,5.3-4.7,14.7-4.7,14.7
		l26,34.7c-9.3,20-16.7,42.7-16.7,42.7l-41.3,5.3c-6.7,0-9.3,10.7-9.3,10.7v59.3c5.3,13.3,8.7,10.7,8.7,10.7l41.3,4.7
		c5.3,20.7,18,44.7,18,44.7l-21.3,25.3c-7.3,10-5.5,20-5.5,20l46.1,43.3c6.7,4.7,14.7-1.3,14.7-1.3l31.3-24.7
		c32.7,18,42,14.7,42,14.7l5.3,44c2,10.7,13.3,10,13.3,10h57.3c11.3-4.7,10.7-9.3,10.7-9.3l4-41.3c30-7.3,44.7-19.3,44.7-19.3
		l30,26.7c12.7,4.7,17.3-2.7,17.3-2.7l40.7-42.7c4-11.3,0-12,0-12l-24-32.7c14.7-27.3,16.7-42,16.7-42l42-6
		C471.7,285.7,471,280.4,471,280.4z M249,361.9c-61.4,0-111.2-49.8-111.2-111.2S187.6,139.6,249,139.6s111.2,49.8,111.2,111.2
		S310.4,361.9,249,361.9z"/>
</g>
</svg>
