<?xml version="1.0" encoding="utf-8"?>
<!-- Generator: Adobe Illustrator 21.1.0, SVG Export Plug-In . SVG Version: 6.00 Build 0)  -->
<svg version="1.1" xmlns="http://www.w3.org/2000/svg" xmlns:xlink="http://www.w3.org/1999/xlink" x="0px" y="0px"
	 viewBox="0 0 500 500" style="enable-background:new 0 0 500 500;" xml:space="preserve">
<style type="text/css">
	.st0{display:none;}
	.st1{display:inline;fill:#FFFFFF;}
	.st2{fill:#FFFFFF;}
</style>
<g id="Layer_2_1_" class="st0">
	<path class="st1" d="M249.5,32.8c-68.2,0-136.1,103-136.1,218.9c0,76.3-2.1,159,39.2,195.7c21.5,19.1,79.5,14.2,102.8,14.2
		c26.1,0,82.5,8.8,103.2-14.7c33.5-37.9,24.7-123.6,24.7-195.2C383.2,135.8,317.7,32.8,249.5,32.8z M166.2,271.3
		c-26.5,0-36.9-24.5-36.9-35.2s28.2,3.9,54.7,3.9s46.1,1.3,46.1,12S192.7,271.3,166.2,271.3z M258.1,417.6c-30,0-65.5-24-65.5-38.7
		s35.4-14.8,65.5-14.8c30,0,54.4-2.8,54.4,12S288.1,417.6,258.1,417.6z M332.8,271.3c-26.5,0-63.9-8.7-63.9-19.4s19.6-12,46.1-12
		c26.5,0,54.7-14.6,54.7-3.9S359.2,271.3,332.8,271.3z"/>
	
		<image style="display:inline;overflow:visible;" width="197" height="256" xlink:href="EF38E7BE.jpg"  transform="matrix(1.9865 0 0 1.9865 54.3333 7.066)">
	</image>
</g>
<g id="Layer_3">
</g>
<g id="Layer_4">
	<path class="st2" d="M413.6,233c-5.3-12-16.6,1.3-17.3-6c-1.5-15.1,4.6-78.2-11.4-104.7C343.6,54.3,303,35,250.6,35
		c-30.9,0-85.6,2.6-118.3,58.7c-17,29.1-32,54.7-28,134c0.9,17.1-20.5,3.1-22.7,19.7c-2.4,18.3,9.3,62.3,27.3,94.3
		c8.7,15.5,19.9,11.8,22.3,26.8c14,88.2,64,119.2,119.3,119.2c54,0,106.6-43.7,122.7-128.6c1.2-6.4,27.5-30.5,28.3-37.4
		C402.9,310.3,423.4,255.2,413.6,233z M330.3,403.7c0,33.7-17.8,65.6-78.3,66c-56.3,0.4-84.3-27.3-84.3-61c0-14.6-5.3-57.7,5.3-61
		c16.6-5.2,36-0.9,56.6-0.9c4.6,0,11.4,3.9,19.1,3.6c9.6-0.4,20.7-5,31.2-5.4c19.2-0.7,36.7-1.1,40.3,0.5
		C335.5,351.6,330.3,389.3,330.3,403.7z M361,259.7c-38.7,40.6-74.7,1.7-111,1.7c-40.4,0-55,37-97,14.3
		c-31.9-17.2-24.3-61.3-13.3-73.3c13.5-14.8,39,3.3,106,3.3s99.1-23.5,112.7-8.7C365.7,205,388.3,231,361,259.7z"/>
</g>
</svg>
